<svg xmlns="http://www.w3.org/2000/svg" width="46" height="24" viewBox="0 0 46 24" fill="#8590a6"><g fill-rule="evenodd"><path fill-rule="nonzero" d="M27.21 6.302L33 16.344H21.42l5.79-10.042zm-3.623 8.79h7.247L27.21 8.806l-3.623 6.286zM6.655 17.258C4.457 17.258 3 15.48 3 12.71c0-2.764 1.465-4.55 3.655-4.55 1.32 0 2.214.62 2.662 1.786h.13v-1.63H10.8v6.595c0 .81.227 1.05.73 1.05.14 0 .262-.01.4-.03v1.18c-.203.06-.407.08-.708.08-1.034 0-1.66-.51-1.766-1.55l-.01-.08h-.13c-.47 1.12-1.375 1.7-2.66 1.7zm7.93.325C14.52 17.91 14.29 18 14 18c-.327 0-.63-.242-.526-.655l2.135-8.483C16.12 6.785 17.48 5 19.21 5c1.36 0 2.336.942 2.336 2.082 0 1.013-.466 1.868-1.295 2.47.09.1.17.205.24.318.32.485.48 1.07.48 1.69 0 2.19-1.946 3.95-4.174 3.95-.58 0-1.132-.26-1.53-.665l-.682 2.738zm5.43-10.623c0-.55-.237-.855-.826-.855-1 0-2.05 1.303-2.49 3.053l-.88 3.566c-.04.12-.04.217-.04.393 0 .782.41 1.288 1.08 1.288.8 0 1.682-.584 2.05-1.402.3-.673.44-1.212.44-1.835 0-.466-.1-.778-.32-1.023-.34.09-.588.128-.877.128h-.07c-.175.003-.29 0-.42-.012-.527-.04-.9-.23-.9-.73 0-.52.4-.74.967-.8.156-.01.285-.02.495-.02h.05c.267 0 .574.05.845.13.55-.4.887-1.17.887-1.87zM6.762 15.995c1.637 0 2.663-1.296 2.663-3.285 0-1.957-.96-3.285-2.475-3.285-1.538 0-2.5 1.23-2.5 3.285 0 2.013.913 3.285 2.313 3.285z"></path><path d="M39.914 10l2.914 3.416H37"></path></g></svg>
