<svg xmlns="http://www.w3.org/2000/svg" width="46" height="24" viewBox="0 0 46 24" fill="#8590a6"><path d="M39.914 10l2.914 3.416H37m-25.02 2.062l-.984.98-3.507-3.493-3.51 3.492-.98-.98 3.504-3.49L3 8.494l.982-.98L7.49 11.01l3.506-3.492.983.98-3.51 3.49 3.506 3.492zm6.25-6.902c0-.64.53-1.182 1.186-1.182.655 0 1.187.543 1.187 1.182 0 .652-.532 1.182-1.187 1.182s-1.187-.53-1.187-1.182zm-3.658 2.73h9.688v1.387h-9.688v-1.386zm3.657 4.118c0-.652.53-1.182 1.183-1.182s1.187.53 1.187 1.182c0 .64-.53 1.182-1.186 1.182s-1.187-.544-1.187-1.182zM26.26 7H33v10h-6.74v-1.372h5.348v-2.95h-5.35v-1.385h5.35v-2.92h-5.35V7z" fill-rule="evenodd"></path></svg>
