<svg xmlns="http://www.w3.org/2000/svg" width="46" height="24" viewBox="0 0 46 24" fill="#8590a6"><path d="M31.265 8.03c2.66 0 4.735 1.946 4.735 4.526s-2.076 4.527-4.735 4.527h-5.93V15.66h5.93c1.863 0 3.285-1.327 3.285-3.104 0-1.777-1.422-3.102-3.285-3.102h-5.93V8.03h5.93zm-7.102 3.567H20.21l-.668 1.82h4.62v1.438h-5.147l-.938 2.595-1.365-.494.782-2.1h-3.427v-1.44h3.94l.667-1.82h-4.607v-1.423H19.2l.953-2.623 1.365.494-.782 2.13h3.427v1.423zM11.523 7l.682 1.27-8.148 4.202v.056l8.148 4.203-.683 1.27L1 12.53v-.056L11.522 7zm29.39 3l2.915 3.416H38" fill-rule="evenodd"></path></svg>
