<svg xmlns="http://www.w3.org/2000/svg" width="46" height="24" viewBox="0 0 46 24" fill="#8590a6"><path d="M1 12.18h1.583l1.496 5.235h.12l2.87-10.79h3.65v1.47H8.19L5.17 18.988H3.12L1 12.18zm13.708 7.174c-1.222-1.993-1.945-4.104-1.945-6.713 0-2.58.723-4.72 1.945-6.7l.946.41C14.524 8.24 14 10.45 14 12.64c0 2.203.524 4.42 1.654 6.294l-.946.42zm3.1 0l-.945-.42c1.13-1.875 1.656-4.09 1.656-6.293 0-2.19-.53-4.4-1.66-6.29l.94-.4c1.23 1.98 1.95 4.12 1.95 6.7 0 2.61-.73 4.72-1.96 6.72zm13.738-4.91c-.103.618-.502 1.332-1.197 2.142-.7.81-1.56 1.22-2.58 1.236-.52 0-.99-.133-1.42-.398-.43-.265-.75-.596-.96-.993-.62.93-1.37 1.4-2.24 1.4-.55 0-1.02-.16-1.42-.48-.4-.32-.61-.76-.62-1.3 0-.42.1-.77.31-1.03.2-.266.4-.43.6-.486.19-.06.36-.09.51-.09.28 0 .51.08.68.245.18.16.263.375.263.64 0 .677-.37 1.14-1.11 1.39.165.19.46.29.89.29.19 0 .33-.016.42-.045.56-.236.975-.72 1.24-1.457.89-3.253 1.33-5.15 1.33-5.696 0-.41-.117-.707-.354-.884-.235-.173-.494-.262-.775-.262-.545 0-1.085.24-1.617.73s-.895 1.08-1.087 1.79c-.043.146-.087.227-.13.24-.045.016-.16.03-.355.046h-.09c-.22 0-.33-.06-.33-.18 0-.017.016-.1.046-.245.234-.84.69-1.583 1.37-2.23.68-.648 1.47-.97 2.374-.97 1.032 0 1.815.462 2.35 1.39.603-.913 1.3-1.37 2.08-1.37h.136c.724 0 1.24.19 1.55.575.31.38.474.79.49 1.216 0 .47-.14.85-.42 1.146-.28.294-.615.44-1 .44-.636 0-.954-.31-.954-.926 0-.297.09-.554.267-.775.18-.22.35-.365.51-.44.165-.072.26-.11.29-.11l.067-.02c0-.013-.043-.043-.13-.087-.09-.046-.21-.1-.357-.157-.15-.057-.29-.08-.42-.065-.537 0-.99.33-1.38.996-.134.24-.304.74-.51 1.5-.21.77-.415 1.56-.622 2.39-.205.825-.323 1.31-.352 1.458-.075.4-.11.685-.11.86 0 .414.11.71.33.885.222.18.473.268.754.268.59 0 1.14-.233 1.66-.704.51-.47.88-1.07 1.08-1.81.03-.13.066-.203.11-.22.045-.012.163-.03.355-.04h.31c.09.09.13.17.13.24zm.736-5.734V5H36v3.71h-3.718zm.93-.955h1.836V5.933h-1.836v1.822zM32.282 20v-3.71H36V20h-3.718zm.93-.955h1.836v-1.82h-1.836v1.82zM41.914 10l2.914 3.416H39" fill-rule="evenodd"></path></svg>
