<svg xmlns="http://www.w3.org/2000/svg" width="46" height="24" viewBox="0 0 46 24" fill="#8590a6"><path d="M22.448 10.226h8.53c-.36-.486-.612-.918-1.062-1.746l1.476-.828c.684 1.458 1.08 2.124 1.8 3.006.666.81 1.17 1.278 2.34 2.142-1.17.864-1.674 1.332-2.34 2.142-.72.882-1.116 1.548-1.8 3.006l-1.476-.81c.594-1.08.648-1.188 1.026-1.746h-8.494V13.79h9.592c.27-.306.486-.522 1.008-.99-.216-.198-.774-.738-.99-.972h-9.61v-1.602zM17.326 7l3.092 3.092H17.9l-.014 7.56h-1.133l.006-7.56h-2.527L17.323 7zM2 12.326l3.092-3.09v2.517l7.56.013V12.9l-7.56-.007v2.525L2 12.326zM41.914 10l2.914 3.416H39" fill-rule="evenodd"></path></svg>
