<?xml version="1.0" encoding="utf-8"?>
<!-- Generator: Adobe Illustrator 21.0.0, SVG Export Plug-In . SVG Version: 6.00 Build 0)  -->
<svg version="1.1" id="图层_1" xmlns="http://www.w3.org/2000/svg" xmlns:xlink="http://www.w3.org/1999/xlink" x="0px" y="0px"
	 viewBox="0 0 12 12" style="enable-background:new 0 0 12 12;" xml:space="preserve">
<title>X</title>
<desc>Created with Sketch.</desc>
<g id="Page-1">
	<g id="切图" transform="translate(-324.000000, -43.000000)">
		<g id="X" transform="translate(324.000000, 43.000000)">
			<path id="Combined-Shape" d="M5.9,4.5L1.7,0.3c-0.4-0.4-1-0.4-1.4,0s-0.4,1,0,1.4l4.2,4.2l-4.2,4.2c-0.4,0.4-0.4,1,0,1.4
				s1,0.4,1.4,0l4.2-4.2l4.2,4.2c0.4,0.4,1,0.4,1.4,0s0.4-1,0-1.4L7.4,5.9l4.2-4.2c0.4-0.4,0.4-1,0-1.4s-1-0.4-1.4,0L5.9,4.5z" fill="#777"/>
		</g>
	</g>
</g>
</svg>
